<svg width="44" height="29" viewBox="0 0 44 29" fill="none" xmlns="http://www.w3.org/2000/svg">
<path fill-rule="evenodd" clip-rule="evenodd" d="M42.687 15.5898C43.0389 15.4254 43.2638 15.0722 43.2638 14.6838C43.2638 14.2954 43.0389 13.9421 42.687 13.7777L14.1776 0.461517C13.8679 0.316854 13.5058 0.340418 13.2174 0.523993C12.929 0.707569 12.7544 1.02572 12.7544 1.36756V13.7246H4.00659C3.58661 13.7246 3.21138 13.987 3.06729 14.3815C2.9232 14.776 3.04096 15.2185 3.36207 15.4892L12.7544 23.4067V28C12.7544 28.3418 12.929 28.66 13.2174 28.8436C13.5058 29.0271 13.8679 29.0507 14.1776 28.906L42.687 15.5898ZM14.7544 23.5247C14.9195 23.2235 14.9158 22.8603 14.7544 22.565V15.7246H31.2516C31.8039 15.7246 32.2516 15.2769 32.2516 14.7246C32.2516 14.1723 31.8039 13.7246 31.2516 13.7246H14.7544V2.93834L39.9008 14.6838L14.7544 26.4292V23.5247ZM12.7544 15.7246V20.7909L6.74439 15.7246H12.7544ZM1.72253 8.74869C1.17025 8.74869 0.722534 9.19641 0.722534 9.74869C0.722534 10.301 1.17025 10.7487 1.72253 10.7487H9.79822C10.3505 10.7487 10.7982 10.301 10.7982 9.74869C10.7982 9.19641 10.3505 8.74869 9.79822 8.74869H1.72253ZM1.72253 20.0056C1.17025 20.0056 0.722534 20.4533 0.722534 21.0056C0.722534 21.5579 1.17025 22.0056 1.72253 22.0056H4.00659C4.55888 22.0056 5.00659 21.5579 5.00659 21.0056C5.00659 20.4533 4.55888 20.0056 4.00659 20.0056H1.72253Z" fill="white"/>
</svg>
